<svg width="27" height="27" viewBox="0 0 27 27" fill="none" xmlns="http://www.w3.org/2000/svg">
<g clip-path="url(#clip0_1_69)">
<path d="M8.85938 16.875C11.8883 16.875 14.3438 14.4196 14.3438 11.3906C14.3438 8.36169 11.8883 5.90625 8.85938 5.90625C5.83044 5.90625 3.375 8.36169 3.375 11.3906C3.375 14.4196 5.83044 16.875 8.85938 16.875Z" stroke="#304FFF" stroke-width="2" stroke-linecap="round" stroke-linejoin="round"/>
<path d="M1.07892 21.0937C1.92171 19.7979 3.07481 18.7331 4.43353 17.996C5.79225 17.2589 7.31356 16.8728 8.85935 16.8728C10.4051 16.8728 11.9265 17.2589 13.2852 17.996C14.6439 18.7331 15.797 19.7979 16.6398 21.0937" stroke="#304FFF" stroke-width="2" stroke-linecap="round" stroke-linejoin="round"/>
<path d="M18.1406 16.875C19.6863 16.8741 21.2078 17.2596 22.5666 17.9963C23.9254 18.7331 25.0785 19.7979 25.9211 21.0938" stroke="#304FFF" stroke-width="2" stroke-linecap="round" stroke-linejoin="round"/>
<path d="M16.104 6.29648C16.8542 5.99726 17.6613 5.86744 18.4675 5.91629C19.2737 5.96514 20.0591 6.19146 20.7677 6.57907C21.4763 6.96668 22.0906 7.50602 22.5666 8.15855C23.0426 8.81107 23.3686 9.56068 23.5212 10.3538C23.6739 11.1469 23.6496 11.964 23.4499 12.7466C23.2502 13.5292 22.8801 14.258 22.3661 14.881C21.852 15.504 21.2067 16.0058 20.4763 16.3505C19.7458 16.6952 18.9483 16.8743 18.1406 16.875" stroke="#304FFF" stroke-width="2" stroke-linecap="round" stroke-linejoin="round"/>
</g>
<defs>
<clipPath id="clip0_1_69">
<rect width="27" height="27" fill="white"/>
</clipPath>
</defs>
</svg>
